<mxfile host="app.diagrams.net" modified="2022-07-13T08:15:14.202Z" agent="5.0 (Windows NT 10.0; Win64; x64) AppleWebKit/537.36 (KHTML, like Gecko) Chrome/103.0.5060.114 Safari/537.36 Edg/103.0.1264.49" etag="m2uxeYwsWq5G19HbmRH1" version="20.1.1" type="github">
  <diagram id="9vHzCJPaT_Tv3RAoEVTi" name="Page-1">
    <mxGraphModel dx="1886" dy="901" grid="0" gridSize="10" guides="1" tooltips="1" connect="1" arrows="1" fold="1" page="0" pageScale="1" pageWidth="827" pageHeight="1169" math="0" shadow="0">
      <root>
        <mxCell id="0" />
        <mxCell id="1" parent="0" />
        <mxCell id="7nKWqEFPZ2sJILwNrGbf-4" style="edgeStyle=elbowEdgeStyle;rounded=0;orthogonalLoop=1;jettySize=auto;html=1;exitX=1;exitY=0.5;exitDx=0;exitDy=0;endArrow=open;startSize=14;endSize=14;sourcePerimeterSpacing=8;targetPerimeterSpacing=8;" edge="1" parent="1" source="7nKWqEFPZ2sJILwNrGbf-1" target="7nKWqEFPZ2sJILwNrGbf-3">
          <mxGeometry relative="1" as="geometry" />
        </mxCell>
        <mxCell id="7nKWqEFPZ2sJILwNrGbf-5" style="rounded=0;orthogonalLoop=1;jettySize=auto;html=1;exitX=0.5;exitY=1;exitDx=0;exitDy=0;entryX=0;entryY=0.5;entryDx=0;entryDy=0;endArrow=open;startSize=14;endSize=14;sourcePerimeterSpacing=8;targetPerimeterSpacing=8;edgeStyle=orthogonalEdgeStyle;" edge="1" parent="1" source="7nKWqEFPZ2sJILwNrGbf-1" target="7nKWqEFPZ2sJILwNrGbf-3">
          <mxGeometry relative="1" as="geometry" />
        </mxCell>
        <mxCell id="7nKWqEFPZ2sJILwNrGbf-1" value="test&lt;br&gt;" style="rounded=0;whiteSpace=wrap;html=1;hachureGap=4;" vertex="1" parent="1">
          <mxGeometry x="120" y="290" width="160" height="80" as="geometry" />
        </mxCell>
        <mxCell id="7nKWqEFPZ2sJILwNrGbf-2" value="" style="edgeStyle=none;orthogonalLoop=1;jettySize=auto;html=1;rounded=0;endArrow=open;startSize=14;endSize=14;sourcePerimeterSpacing=8;targetPerimeterSpacing=8;curved=1;" edge="1" parent="1">
          <mxGeometry width="120" relative="1" as="geometry">
            <mxPoint x="380" y="303" as="sourcePoint" />
            <mxPoint x="500" y="303" as="targetPoint" />
            <Array as="points" />
          </mxGeometry>
        </mxCell>
        <mxCell id="7nKWqEFPZ2sJILwNrGbf-3" value="test&lt;br&gt;" style="rounded=0;whiteSpace=wrap;html=1;hachureGap=4;" vertex="1" parent="1">
          <mxGeometry x="400" y="409" width="160" height="80" as="geometry" />
        </mxCell>
      </root>
    </mxGraphModel>
  </diagram>
</mxfile>
